<?xml version="1.0" encoding="UTF-8"?>
<svg xmlns="http://www.w3.org/2000/svg" version="1.1" xmlns:xlink="http://www.w3.org/1999/xlink" viewBox="0 0 816 506">
  <!-- Generator: Adobe Illustrator 29.0.0, SVG Export Plug-In . SVG Version: 2.1.0 Build 186)  -->
  <defs>
    <style>
      .st0 {
        stroke: #000;
      }

      .st0, .st1, .st2, .st3, .st4, .st5 {
        fill: none;
        stroke-miterlimit: 10;
      }

      .st6 {
        fill: #231815;
      }

      .st7 {
        fill: #3fa9f5;
      }

      .st1 {
        stroke-dasharray: 2 9;
      }

      .st1, .st3 {
        stroke-width: 8px;
      }

      .st1, .st5 {
        stroke: #666;
      }

      .st8 {
        opacity: .6;
      }

      .st2 {
        stroke: #fff;
        stroke-width: 5px;
      }

      .st2, .st3, .st5 {
        stroke-linecap: round;
      }

      .st9 {
        fill: #052b2a;
      }

      .st10 {
        display: none;
      }

      .st11 {
        fill: #22b573;
      }

      .st12 {
        fill: #b9c9c9;
      }

      .st3, .st4 {
        stroke: #4d4d4d;
      }

      .st4 {
        stroke-dasharray: 14;
        stroke-width: 7px;
      }

      .st5 {
        stroke-width: 2px;
      }
    </style>
  </defs>
  <g id="_レイヤー_1" data-name="レイヤー_1">
    <rect class="st7" x="10" y="27" width="778" height="460"/>
    <path class="st11" d="M199.9,394.1l-7.9-2.1c-24,0-29,18-29,18l-2-6c-20-43-150-48-150-48V27h778v460h-252.4c-11.4-28-22.6-27-22.6-27l-18.8,8.9-18.2,10.1-11-26-15.5,8.4-11-20.5,11-14.3-49.9-115.3-200.7,82.9Z"/>
    <path class="st12" d="M426.5,135.5l4,11,16,13,20,26,13,6h21.3l15.7-4,5.2,4s-.2,18,5.8,21,7.7,13,7.9,24.5l10.1,11.5s11-10,21,3l23-10,7,1v13.7s4,7.1,0,18.7c0,0-1,14.6,7,17.6,0,0,3,14,10,18v14.8l-10,6.2s-16-11-21,9c0,0-5,10-18,8l-16,12s-29,9-34,5v11s-18,18-25,15l-5,4h-6.7l-14.3,14,1,10-15,7s-31-60-74-39l-14,25-21,7-2,5-16-7-33-5c2,1-53.5-18-76-13s-12,6-12,6c0,0,0-20-15-18,0,0-3-10,3-12l4-8,11-13,5-13s11,5,11-12l-1-27,19.2-21.5-1.2-6.5,10-14,25-2,27.4-39s-3.4-4-.4-10l-24-5-5,5v-10s-4-10,6-17c0,0-4-15-9-17s-14-2-14-2l-6,6,3-16-14-15-23-3-6-6,12-3s2-16,23-42h11.3l13.7,12s17,5,19,8,11,10,11,10c0,0,9-10,28,9l15,17,10-10,8,8-4,9,7,5,10-5,10,1,6-13,17,3,6-8-5-8,8-18s17,5,18,17c0,0-7,8-5,14Z"/>
    <path id="mono" class="st0" d="M197.7,344.5h25.4l15.3-12h13.5l4.5-12,10-3,26-21s15.8-42,32.9-53c0,0,2.5-22,8.3-24l30.8-37-4-12-1.3-12.4"/>
    <g id="enoden">
      <path class="st5" d="M438.5,344.5l-20,17s-18.5,9.5-28.5,10.5c0,0-20.5,4.5-27.5,5.5l-9,4-6.5,9.5-5.5,7.5-11,11-7.5,1.5-8.5.5h-17.2l-14.8-6,.5.5-11.5-4.5-47-5.4-10.1,1.9-3.9-5.5-21-16.6-6,.6-8-6-10.5-16.5-5-4-2-8,6-10v-14s1-5,4-13l5-16v-20"/>
      <path class="st1" d="M438.5,344.5l-20,17s-18.5,9.5-28.5,10.5c0,0-20.5,4.5-27.5,5.5l-9,4-6.5,9.5-5.5,7.5-11,11-7.5,1.5-8.5.5h-17.2l-14.8-6,.5.5-11.5-4.5-47-5.4-10.1,1.9-3.9-5.5-21-16.6-6,.6-8-6-10.5-16.5-5-4-2-8,6-10v-14s1-5,4-13l5-16v-20"/>
    </g>
    <g id="JR">
      <polyline class="st3" points="355.5 172.5 282.9 219.5 243 247 186.8 231 108 237"/>
      <polyline class="st2" points="355.5 172.5 282.9 219.5 243 247 186.8 231 108 237"/>
      <polyline class="st4" points="355.5 172.5 282.9 219.5 243 247 186.8 231 108 237"/>
    </g>
    <g id="JR1" data-name="JR">
      <path class="st3" d="M357.5,89.5l-6,26,13,22-9,35,21,33,20,10,34,40v31l11,21-2,36c8,36,46,39,46,39l22,15,8.5,6.5s5,44,33,42c0,0,58-18,88-8"/>
      <path class="st2" d="M357.5,89.5l-6,26,13,22-9,35,21,33,20,10,34,40v31l11,21-2,36c8,36,46,39,46,39l22,15,8.5,6.5s5,44,33,42c0,0,58-18,88-8"/>
      <path class="st4" d="M357.5,89.5l-6,26,13,22-9,35,21,33,20,10,34,40v31l11,21-2,36c8,36,46,39,46,39l22,15,8.5,6.5s5,44,33,42c0,0,58-18,88-8"/>
    </g>
    <circle class="st9" cx="417.5" cy="237.5" r="9.5"/>
    <circle class="st9" cx="358.5" cy="158.5" r="9.5"/>
    <circle class="st9" cx="441.5" cy="318.5" r="9.5"/>
    <circle class="st9" cx="420" cy="362" r="5"/>
    <circle class="st9" cx="203" cy="390" r="5"/>
    <rect class="st9" x="246" y="328" width="10" height="10"/>
    <rect class="st9" x="321" y="232" width="10" height="10"/>
    <path class="st6" d="M379.3,317.6s0,0,0,0c0,0-.1-.3-.1-.4,0,.1.1.4.1.4h0ZM373.9,318.1c-1.1.4-4.3,1.4-5.2,2.1-1.6,1.2-1.7,8-.9,9.9.1.3,0,.5,0,.7,0,.1,0,.2,0,.3-.2.1-.2.2-.2.3,0,0-.1,0-.2,0-.8,0-3-.2-3.7,1.1-.8,1.5-1.1,3-1.1,3.6h-1.2s0,0,0,0v.5h-1.1s0,0,0,0v1.7s0,0,0,0h.5v.5s0,0,0,0h32.8s0,0,0,0v-.5h.5s0,0,0,0v-1.7s0,0,0,0h-1.1v-.5s0,0,0,0h-1.3c.3-.7.1-2.1-.4-3.3-.4-.9-.9-1.4-1.5-1.6-.6-.1-1.8-.1-2.5-.1-.2,0-.3,0-.4,0-.1,0-.5-.3-.7-.4,0,0,0-.2-.1-.7,0-.3,0-.8,0-1.3,0-2.6.2-7.1-1.7-8.6-1.5-1.3-4.8-2-5.4-2,0-.1,0-.4,0-.6,0,.2.1.5.3.6,0,0,.2,0,.3,0,.4-.2.2-.9.1-1.4,0,0,0,0,0-.1.4-.8.6-1.7.5-2.5,0,0,.1-.3.1-.5.1,0,.1-.3,0-.4,0,0,0-.3,0-.4,0-.1,0-.3,0-.5,0-.2,0-.4,0-.5,0,0,0,0,0,0,0,0,0-.2-.2-.3,0-.1,0-.4-.3-.5,0,0,0-.2-.3-.2,0,0,0-.2-.2-.2,0,0-.1,0-.2,0-.8-1.1-2-1.1-2.5-1.1-1.5,0-2.1.6-2.5,1,0,0,0,0-.1.1-.2,0-.5.4-.5.5,0,0-.1.1-.1.2,0,0-.1,0-.2,0,0,0,0,.2,0,.2-.1,0-.2.1-.2.3,0,.1-.1.3,0,.4,0,.1-.2.4-.1.6,0,0,0,0,0,.1,0,.1,0,.3,0,.3,0,.1,0,.2,0,.3,0,.1,0,.3,0,.3,0,.4.1,2.1.5,2.6,0,0,0,.3,0,.5,0,.3-.2.6,0,.8,0,0,.1.1.2.1.2,0,.3,0,.5-.1.1-.1.2-.4.2-.5,0,.1,0,.3,0,.4,0,0,0,0,0,0,0,0-.1,0-.3,0h0Z"/>
    <g>
      <path class="st6" d="M383.4,258.6h-10.6c-.5,0-.9.4-1,.9s.2.7.5.9h7.5l.7.2h0c.5.3.9.9.9,1.6s-.8,1.6-1.7,1.6h-.2s0,1.3,0,1.3h1.2l.3,5.7c0,.5.5.9,1,.9s0,0,0,0c.5,0,1-.5.9-1l-.5-10.1h.8c.5,0,1-.4,1-.9s-.4-1-1-1h0Z"/>
      <polygon class="st6" points="369.2 266.2 369.1 267.9 371 267.9 371 267.9 372.2 267.9 372.1 266.2 369.2 266.2 369.2 266.2"/>
      <path class="st6" d="M379.8,263c.6,0,1-.5,1-1s-.5-.9-1-.9h-11.4c-.5,0-1,.4-1,1s0,.2,0,.4h8.7c1,0,1.8.8,1.9,1.7s-.8,2-1.9,2h-.3v1.7h1.2l.3,6.1c0,.5.5.9,1,.9s0,0,0,0c.5,0,1-.5.9-1l-.5-10.9h1Z"/>
      <path class="st6" d="M368.8,273.9c0,.5.4,1,.9,1,0,0,0,0,0,0,.5,0,1-.4,1-.9v-2.3c.1,0-1.8,0-1.8,0v2.2h-.1Z"/>
      <path class="st6" d="M366.3,268.7l.2-3.3h6.3l.2,3.3h-6.6ZM376.2,265.4c.7,0,1.2-.6,1.1-1.2s-.6-1-1.1-1h-13c-.6,0-1.1.4-1.1,1s.5,1.2,1.1,1.2h1.1l-.6,12.4c0,.6.4,1.2,1.1,1.2,0,0,0,0,0,0,.6,0,1.1-.5,1.1-1.1l.4-7h6.8l.4,7c0,.6.5,1.1,1.1,1.1s0,0,0,0c.6,0,1.1-.6,1.1-1.2l-.6-12.4h1.1Z"/>
    </g>
    <image width="1299" height="1299" transform="translate(457 292) scale(0)" xlink:href="kamakuramap-1.png"/>
    <g>
      <path class="st6" d="M443.9,242.6h2.7v-2h-.3v-1h.4v-1.4c-1.2,0-5.2.4-5.5.4v5.5h2.9v-.6h-.1v-.8h0Z"/>
      <path class="st6" d="M470,232.8l-.4.2c.4-.5,0-.5,0-.5.2-.5,0-.4,0-.4-.4.8-1.9.7-1.9.7.3-.3,0-.7,0-.7l-.5.4c-1,.5-3.1.1-3.1.1.1-.6-.3,0-.3,0l-.6-1.6c0-.1-.1-.2-.1-.3,0,0,.1-.1.2-.2,0-.1,0-.2-.2-.3-.2,0-.4.1-.5.2-.2,0-.4,0-.6.1-.3,0-.6,0-.9,0-.9,0-1.8,0-2.7,0-1.1,0-2.1,0-3.2,0-1.1,0-2.1,0-3.2,0-.9,0-1.8,0-2.7,0-.3,0-.6,0-.9,0-.2,0-.4,0-.6-.1-.2,0-.3-.2-.5-.2-.1,0-.2.1-.2.3,0,0,.2.2.2.2,0,.1,0,.2-.1.3l-.6,1.6s-.4-.5-.3,0c0,0-2.1.4-3.1-.1l-.5-.4s-.3.4,0,.7c0,0-1.4.1-1.9-.7,0,0-.3-.1,0,.4,0,0-.4,0,0,.5l-.4-.2s0,0,0,.1h0c.3.1.7.3,1.3.5,1.1.4,2.7.7,4.7.7h9c0,0,9,0,9,0,2,0,3.6-.4,4.7-.8.6-.2,1-.4,1.3-.5h0c0,0,0-.1,0-.1h0Z"/>
      <path class="st6" d="M456.9,242.8h-3.7v-4.3h3.7v4.3h0ZM464.1,234.6h-9c0,0-9,0-9,0-2.4,0-4.2-.6-5.4-1l-.2.2v.4s.6.2.6.2c0,0,2.9,3.2,4.6,3.4v.2h.7c0-.1.2,0,.2,0h.2s0,.2,0,.2h.1v1.9h-.4v.2h.3v2.7h-2.7c0,.1.1.2.1.2v.8h21.4v-.8h.1v-.2h-2.7v-2.7h.3v-.2h-.4v-1.8h.1v-.2h.3s.2,0,.2,0h.7c0,.1,0,0,0,0,1.7-.2,4.5-3.4,4.5-3.4l.6-.2v-.4s-.2-.2-.2-.2c-1.1.4-2.9.9-5.2.9h0Z"/>
      <path class="st6" d="M463.5,239.6h.3v1h-.3v1.9h2.7v.6h-.1v.8h2.9v-5.5c-.3,0-4.4-.3-5.5-.4v1.4h0Z"/>
    </g>
    <image width="1299" height="1299" transform="translate(502 236) scale(0)" xlink:href="kamakuramap-2.png"/>
    <path class="st11" d="M352.9,244l-1.4,4.7,1.4,3.1-.7,2.5-2,4.2,1.4,3.3v2.6s1.9,1.7,1.9,1.7l5.3-3,1.3-2.1,8.1,1.3,1.8.8v3l4.3-.8.5-4.3,2.7-1.4-1.8-4.6-1.4-4.1,1.4-1.4s2-5-7-4l-1.1.7-3.6-4.2-7.2-1.5,1,4-4.6-.5Z"/>
  </g>
  <g id="_レイヤー_2" data-name="レイヤー_2" class="st10">
    <image class="st8" width="1614" height="1614" transform="translate(108 -48) scale(.3)" xlink:href="../../../../鎌倉マップ.png"/>
  </g>
</svg>