<?xml version="1.0" encoding="UTF-8"?>
<svg id="_レイヤー_6" data-name="レイヤー 6" xmlns="http://www.w3.org/2000/svg" viewBox="0 0 274 410">
  <defs>
    <style>
      .cls-1 {
        fill: #ff5b0a;
      }

      .cls-2 {
        fill: none;
      }

      .cls-3 {
        opacity: .8;
      }

      .cls-4 {
        fill: #1a274b;
      }

      .cls-5 {
        fill: #d93700;
      }

      .cls-6 {
        opacity: .71;
      }

      .cls-7 {
        opacity: .6;
      }
    </style>
  </defs>
  <g>
    <path class="cls-4" d="M79.04,222.89h-.12c-.32,0-.52-.18-.6-.54v-.12c0-.32.16-.52.48-.6,3.28-.68,6.16-1.84,8.64-3.48s4.42-3.63,5.82-5.97c1.4-2.34,2.1-4.91,2.1-7.71,0-3.44-1.01-6.09-3.03-7.95-2.02-1.86-4.65-2.89-7.89-3.09h-.12c-.28,0-.51.1-.69.3-.18.2-.25.44-.21.72.04.28.07.59.09.93.02.34.03.67.03.99,0,1.6-.25,3.26-.75,4.98-.5,1.72-1.35,3.4-2.55,5.04-.2.24-.3.56-.3.96,0,.36.08.64.24.84.16.24.28.4.36.48.16.24.31.67.45,1.29.14.62.21,1.27.21,1.95,0,.88-.17,1.72-.51,2.52-.34.8-1.03,1.2-2.07,1.2-.76,0-1.41-.26-1.95-.78-.54-.52-1.03-1.18-1.47-1.98-.2-.32-.48-.48-.84-.48-.16,0-.34.06-.54.18-2.48,1.96-4.95,3.48-7.41,4.56s-4.67,1.62-6.63,1.62c-3.28,0-4.92-1.52-4.92-4.56,0-.56.06-1.18.18-1.86.12-.68.28-1.4.48-2.16.6-2.08,1.63-4.14,3.09-6.18s3.26-3.95,5.4-5.73c2.14-1.78,4.55-3.29,7.23-4.53.6-.24.94-.74,1.02-1.5v-.66l.06-3.84c0-.28-.1-.52-.3-.72-.2-.2-.46-.28-.78-.24-.88.08-1.74.16-2.58.24-.84.08-1.6.12-2.28.12-1.96,0-3.47-.45-4.53-1.35-1.06-.9-1.77-2.27-2.13-4.11v-.12c0-.32.14-.54.42-.66.04-.04.14-.06.3-.06.2,0,.38.08.54.24.4.44.86.75,1.38.93.52.18,1.22.27,2.1.27s1.88-.06,3.12-.18l3.78-.36c.72-.16,1.08-.58,1.08-1.26l.12-4.38c.04-1.2-.05-2.09-.27-2.67-.22-.58-.55-.99-.99-1.23-.24-.12-.36-.34-.36-.66,0-.44.24-.66.72-.66,1.68,0,3.5.6,5.46,1.8.68.4,1.16.84,1.44,1.32.28.48.42,1,.42,1.56,0,.68-.24,1.4-.72,2.16-.28.4-.52,1.04-.72,1.92v.18c0,.2.09.37.27.51.18.14.39.19.63.15.68-.2,1.34-.4,1.98-.6.64-.2,1.2-.44,1.68-.72.68-.36,1.3-.54,1.86-.54.36,0,.78.06,1.26.18,1.04.28,1.91.72,2.61,1.32.7.6,1.05,1.2,1.05,1.8,0,.8-.62,1.4-1.86,1.8-1.2.4-2.58.77-4.14,1.11-1.56.34-3.16.67-4.8.99-.72.16-1.08.58-1.08,1.26-.04.56-.06,1.13-.06,1.71v1.77c0,.28.1.5.3.66.2.16.44.22.72.18.76-.2,1.52-.36,2.28-.48.76-.12,1.52-.22,2.28-.3.36-.04.72-.07,1.08-.09.36-.02.72-.03,1.08-.03,2.24,0,4.4.31,6.48.93,2.08.62,3.93,1.52,5.55,2.7,1.62,1.18,2.9,2.61,3.84,4.29.94,1.68,1.41,3.56,1.41,5.64,0,5.56-1.95,9.9-5.85,13.02-3.9,3.12-9.59,5.06-17.07,5.82ZM62.24,213.05c1.4-.24,2.98-.79,4.74-1.65,1.76-.86,3.54-2.01,5.34-3.45.64-.48.86-1.06.66-1.74-.4-2.6-.64-5.42-.72-8.46-.04-.24-.16-.42-.36-.54s-.4-.12-.6,0c-2,1.24-3.83,2.68-5.49,4.32-1.66,1.64-2.98,3.32-3.96,5.04-.98,1.72-1.47,3.32-1.47,4.8,0,.72.18,1.19.54,1.41.36.22.8.31,1.32.27ZM78.38,201.59c.76-1.16,1.39-2.35,1.89-3.57.5-1.22.85-2.37,1.05-3.45v-.12c0-.28-.1-.51-.3-.69-.2-.18-.42-.23-.66-.15-.84.12-1.64.3-2.4.54-.28.08-.53.25-.75.51-.22.26-.31.55-.27.87.04,1.16.11,2.23.21,3.21.1.98.23,1.87.39,2.67.04.2.16.32.36.36.2.04.36-.02.48-.18Z"/>
    <path class="cls-4" d="M80.42,280.31c-3.2,0-5.8-.54-7.8-1.62-2-1.08-3-2.8-3-5.16,0-1.56.66-2.92,1.98-4.08,1.32-1.16,3.2-1.74,5.64-1.74,2.2,0,4.09.51,5.67,1.53,1.58,1.02,2.45,2.45,2.61,4.29.04.24.17.41.39.51.22.1.43.09.63-.03,1.52-.92,2.78-2.16,3.78-3.72s1.5-3.38,1.5-5.46c0-3.08-.91-5.38-2.73-6.9-1.82-1.52-4.03-2.28-6.63-2.28-1.96,0-3.96.55-6,1.65-2.04,1.1-3.95,2.6-5.73,4.5-1.78,1.9-3.29,4.05-4.53,6.45-.36.64-.82,1.12-1.38,1.44-.56.32-1.12.48-1.68.48-.92,0-1.64-.32-2.16-.96-.6-.72-.9-1.48-.9-2.28,0-1.28.66-2.52,1.98-3.72,1.04-.96,2.23-2.18,3.57-3.66,1.34-1.48,2.72-3.08,4.14-4.8,1.42-1.72,2.79-3.44,4.11-5.16,1.32-1.72,2.49-3.3,3.51-4.74,1.02-1.44,1.81-2.6,2.37-3.48.12-.24.18-.46.18-.66,0-.32-.11-.55-.33-.69-.22-.14-.49-.13-.81.03-1.24.56-2.57,1.17-3.99,1.83-1.42.66-2.77.99-4.05.99s-2.23-.3-2.97-.9c-.74-.6-1.31-1.33-1.71-2.19-.4-.86-.72-1.67-.96-2.43v-.18c0-.28.1-.48.3-.6.16-.08.28-.12.36-.12.2,0,.36.06.48.18.4.36.99.56,1.77.6.78.04,1.53.04,2.25,0h.24c.76,0,1.78-.13,3.06-.39,1.28-.26,2.63-.62,4.05-1.08,1.42-.46,2.69-.99,3.81-1.59.36-.2.72-.34,1.08-.42.36-.08.72-.12,1.08-.12.68,0,1.29.1,1.83.3.54.2,1.01.42,1.41.66.84.48,1.47,1.05,1.89,1.71.42.66.63,1.31.63,1.95,0,1.24-.64,2.16-1.92,2.76-.64.32-1.43.94-2.37,1.86-.94.92-1.94,2-3,3.24-1.06,1.24-2.09,2.49-3.09,3.75-1,1.26-1.9,2.41-2.7,3.45-.08.08-.12.18-.12.3,0,.16.07.28.21.36.14.08.29.08.45,0,2.32-1.2,4.86-1.8,7.62-1.8s5.22.59,7.26,1.77c2.04,1.18,3.62,2.78,4.74,4.8,1.12,2.02,1.68,4.27,1.68,6.75,0,2.92-.69,5.5-2.07,7.74-1.38,2.24-3.38,3.98-6,5.22-2.62,1.24-5.83,1.86-9.63,1.86ZM78.38,275.57h.24c.56,0,1.02-.18,1.38-.54.44-.36.66-.84.66-1.44s-.26-1.16-.78-1.68c-.52-.52-1.28-.78-2.28-.78s-1.86.19-2.46.57c-.6.38-.9.89-.9,1.53s.37,1.16,1.11,1.56c.74.4,1.75.66,3.03.78Z"/>
    <path class="cls-4" d="M77.3,338.39c-3.32,0-6.16-.45-8.52-1.35-2.36-.9-4.17-2.12-5.43-3.66-1.26-1.54-1.89-3.29-1.89-5.25,0-1.12.23-2.3.69-3.54.46-1.24,1.15-2.48,2.07-3.72.32-.32.62-.38.9-.18.4.16.48.42.24.78-.52,1.2-.78,2.34-.78,3.42,0,2.2,1.13,3.88,3.39,5.04,2.26,1.16,5.47,1.74,9.63,1.74,1.2,0,2.57-.06,4.11-.18,1.54-.12,3.06-.32,4.56-.6,1.5-.28,2.77-.64,3.81-1.08.32-.16.72-.24,1.2-.24.84,0,1.78.28,2.82.84,1.56.76,2.34,1.72,2.34,2.88,0,.64-.29,1.27-.87,1.89-.58.62-1.47,1.13-2.67,1.53-2.12.64-4.61,1.08-7.47,1.32-2.86.24-5.57.36-8.13.36ZM74.3,307.01c-.16.08-.3.12-.42.12-.2,0-.36-.06-.48-.18-.28-.28-.3-.56-.06-.84.16-.28.35-.56.57-.84.22-.28.43-.56.63-.84.08-.08.12-.22.12-.42,0-.28-.16-.46-.48-.54-4.8-.68-8.02-2.52-9.66-5.52-.04-.08-.06-.18-.06-.3,0-.2.06-.38.18-.54.28-.28.58-.32.9-.12,1,.52,2.15.89,3.45,1.11,1.3.22,2.65.33,4.05.33,1.84,0,3.7-.13,5.58-.39,1.88-.26,3.66-.55,5.34-.87.24-.04.47-.07.69-.09.22-.02.43-.03.63-.03,1.4,0,2.6.44,3.6,1.32.76.64,1.32,1.27,1.68,1.89.36.62.54,1.19.54,1.71,0,.76-.41,1.37-1.23,1.83-.82.46-2.03.61-3.63.45-1.12-.12-2.16-.18-3.12-.18-1.64,0-3.14.22-4.5.66-1.36.44-2.8,1.2-4.32,2.28Z"/>
    <path class="cls-4" d="M96.44,368.39c-1.68,0-3.22-.42-4.62-1.26s-2.52-1.96-3.36-3.36c-.84-1.4-1.26-2.94-1.26-4.62s.42-3.27,1.26-4.65,1.96-2.49,3.36-3.33,2.94-1.26,4.62-1.26,3.28.42,4.68,1.26c1.4.84,2.52,1.95,3.36,3.33s1.26,2.93,1.26,4.65-.42,3.22-1.26,4.62c-.84,1.4-1.96,2.52-3.36,3.36-1.4.84-2.96,1.26-4.68,1.26ZM96.44,365.03c1.64,0,3.05-.57,4.23-1.71,1.18-1.14,1.77-2.53,1.77-4.17s-.59-3.03-1.77-4.17c-1.18-1.14-2.59-1.71-4.23-1.71s-2.99.57-4.17,1.71-1.77,2.53-1.77,4.17.59,3.03,1.77,4.17,2.57,1.71,4.17,1.71Z"/>
  </g>
  <g>
    <path class="cls-4" d="M198.06,111.96c-.8,0-1.2-.36-1.2-1.08,0-.24.02-1.24.06-3,.04-1.76.08-3.92.12-6.48,0-.2-.09-.34-.27-.42-.18-.08-.35-.06-.51.06-2.04,2.16-4.15,4.03-6.33,5.61-2.18,1.58-4.33,2.91-6.45,3.99-.08.04-.18.06-.3.06-.24,0-.42-.1-.54-.3-.04-.08-.06-.18-.06-.3,0-.24.08-.42.24-.54,1-.72,2.02-1.62,3.06-2.7,1.04-1.08,2.06-2.28,3.06-3.6l.06-.24c0-.16-.06-.29-.18-.39-.12-.1-.26-.11-.42-.03-1.4.64-2.93,1.36-4.59,2.16-1.66.8-3.21,1.56-4.65,2.28s-2.58,1.3-3.42,1.74c-.44.24-.73.43-.87.57-.14.14-.19.37-.15.69,0,.28-.12.54-.36.78-.08.04-.2.06-.36.06-.28,0-.48-.1-.6-.3-.24-.4-.59-1.07-1.05-2.01-.46-.94-.92-1.91-1.38-2.91-.46-1-.81-1.76-1.05-2.28-.04-.16-.04-.3,0-.42.04-.12.18-.2.42-.24l1.38-.18c.68-.12,1.45-.24,2.31-.36.86-.12,1.79-.24,2.79-.36.72-.16,1.08-.58,1.08-1.26v-14.76c0-.32-.11-.58-.33-.78-.22-.2-.49-.3-.81-.3h-1.02c-.76,0-1.51.01-2.25.03-.74.02-1.35.05-1.83.09h-.12c-.64,0-1.06-.32-1.26-.96l-.06-.24-.06-.18c0-.24.09-.44.27-.6.18-.16.39-.22.63-.18.56.04,1.26.09,2.1.15.84.06,1.7.09,2.58.09h1.02c.32,0,.59-.11.81-.33.22-.22.33-.47.33-.75v-5.28c0-.32-.11-.58-.33-.78-.22-.2-.49-.3-.81-.3h-2.04c-.6,0-1.2.26-1.8.78-.52.56-1.06,1.1-1.62,1.62-.56.52-1.12,1.04-1.68,1.56-.28.28-.56.28-.84,0-.28-.28-.32-.58-.12-.9,1.16-1.64,2.24-3.58,3.24-5.82,1-2.24,1.85-4.54,2.55-6.9.7-2.36,1.17-4.54,1.41-6.54.04-.2.06-.4.06-.6s.02-.38.06-.54c0-.24.06-.38.18-.42.16-.08.32-.1.48-.06.64.12,1.44.32,2.4.6.96.28,1.92.57,2.88.87.96.3,1.78.59,2.46.87.4.16.56.46.48.9v.12c0,.44.24.72.72.84,1.88.4,3.52,1.01,4.92,1.83,1.4.82,2.3,1.85,2.7,3.09.2.68.66,1.02,1.38,1.02h1.68c.2,0,.35-.09.45-.27.1-.18.11-.35.03-.51-.04-.08-.06-.15-.06-.21s-.02-.11-.06-.15c-.24-1.64-.62-3.1-1.14-4.38-.52-1.28-1.44-2.3-2.76-3.06-.2-.08-.3-.26-.3-.54,0-.44.22-.7.66-.78,1.64,0,3.18.25,4.62.75,1.44.5,2.61,1.2,3.51,2.1.9.9,1.35,1.97,1.35,3.21,0,.68-.11,1.28-.33,1.8-.22.52-.49.94-.81,1.26-.12.12-.18.22-.18.3,0,.32.16.48.48.48h3.06c.72,0,1.18-.36,1.38-1.08.32-1.08.62-2.37.9-3.87.28-1.5.46-2.87.54-4.11.04-.2.06-.39.06-.57v-.51c0-.24.06-.38.18-.42.12-.12.3-.14.54-.06.6.12,1.39.31,2.37.57.98.26,1.97.55,2.97.87,1,.32,1.78.6,2.34.84.24.12.36.32.36.6,0,.2-.07.41-.21.63-.14.22-.31.31-.51.27-.08,0-.15,0-.21-.03-.06-.02-.13-.03-.21-.03-.44,0-.82.18-1.14.54-.72.88-1.54,1.83-2.46,2.85-.92,1.02-1.82,1.93-2.7,2.73-.08.08-.12.2-.12.36,0,.28.14.42.42.42h5.22c.6,0,1.02-.2,1.26-.6.2-.32.53-.8.99-1.44.46-.64.79-1.08.99-1.32.16-.28.38-.42.66-.42.16,0,.36.06.6.18.4.24.91.62,1.53,1.14.62.52,1.22,1.05,1.8,1.59.58.54,1.01.99,1.29,1.35.16.2.24.42.24.66,0,.44-.2.66-.6.66h-11.7c-.28,0-.53.1-.75.3-.22.2-.33.46-.33.78v3.3c0,.76.36,1.14,1.08,1.14h.42c.4,0,.68-.16.84-.48.12-.2.28-.47.48-.81.2-.34.36-.61.48-.81.24-.4.6-.52,1.08-.36.68.24,1.57.62,2.67,1.14,1.1.52,1.95.96,2.55,1.32.4.24.6.58.6,1.02,0,.48-.24.8-.72.96l-.42.18c-.56.32-.84.98-.84,1.98v2.04c.04.24.15.38.33.42.18.04.33-.02.45-.18.2-.32.41-.64.63-.96.22-.32.39-.6.51-.84.2-.24.4-.36.6-.36s.38.08.54.24c.48.4,1.06.97,1.74,1.71.68.74,1.2,1.37,1.56,1.89.12.16.18.34.18.54,0,.44-.18.66-.54.66h-4.86c-.68,0-1.02.36-1.02,1.08l.12,6.84c0,.52-.51.94-1.53,1.26-1.02.32-2.07.48-3.15.48-.84,0-1.26-.38-1.26-1.14,0-.56-.3-.84-.9-.84-.16,0-.29.08-.39.24-.1.16-.11.34-.03.54.88,1.52,2.01,2.99,3.39,4.41,1.38,1.42,2.9,2.7,4.56,3.84,1.66,1.14,3.33,2.07,5.01,2.79.2.08.3.22.3.42,0,.16-.1.3-.3.42-1,.52-1.95,1.23-2.85,2.13-.9.9-1.63,1.77-2.19,2.61-.12.28-.36.42-.72.42-.24,0-.44-.08-.6-.24-1.44-1.36-2.76-3.16-3.96-5.4-1.2-2.24-2.2-4.58-3-7.02-.04-.2-.18-.3-.42-.3-.28,0-.42.14-.42.42.04,2.24.07,4.29.09,6.15.02,1.86.04,3.39.06,4.59.02,1.2.03,1.92.03,2.16,0,.52-.49.92-1.47,1.2-.98.28-1.97.42-2.97.42-.8,0-1.2-.36-1.2-1.08v-17.64c0-.32-.1-.58-.3-.78-.2-.2-.44-.3-.72-.3h-.42c-.28,0-.53.1-.75.3-.22.2-.33.46-.33.78v17.16c0,.52-.5.92-1.5,1.2-1,.28-1.98.42-2.94.42ZM173.52,100.62c-.6,0-1.1-.19-1.5-.57-.4-.38-.58-.93-.54-1.65v-2.22c0-1.68-.11-3.17-.33-4.47-.22-1.3-.61-2.49-1.17-3.57-.08-.16-.12-.26-.12-.3,0-.2.08-.36.24-.48.24-.24.54-.28.9-.12,1.76,1.08,3.24,2.39,4.44,3.93,1.2,1.54,1.8,3.25,1.8,5.13,0,1.48-.42,2.58-1.26,3.3s-1.66,1.06-2.46,1.02ZM191.88,82.62h4.08c.32,0,.58-.11.78-.33.2-.22.3-.47.3-.75v-3.54c0-.32-.1-.58-.3-.78-.2-.2-.46-.3-.78-.3-.56.04-1.1.06-1.62.06s-.98.02-1.38.06h-.12c-.64,0-1.06-.32-1.26-.96l-.06-.24v-.24c0-.48.26-.72.78-.72.44.04.99.08,1.65.12.66.04,1.33.08,2.01.12.32,0,.58-.11.78-.33.2-.22.3-.47.3-.75v-3.36c0-.32-.1-.58-.3-.78-.2-.2-.46-.3-.78-.3h-1.56c-.68,0-1.22.3-1.62.9-.48.64-1.08,1.1-1.8,1.38-.16.04-.33.09-.51.15-.18.06-.35.09-.51.09-.96,0-1.56-.44-1.8-1.32-.44-1.44-1.04-2.81-1.8-4.11-.76-1.3-1.72-2.39-2.88-3.27-.16-.12-.36-.18-.6-.18-.4,0-.68.16-.84.48-1.8,3.36-3.82,6.4-6.06,9.12-.08.16-.12.26-.12.3,0,.36.16.54.48.54h6.78c.56,0,.98-.2,1.26-.6.2-.28.43-.6.69-.96s.49-.68.69-.96c.16-.28.4-.42.72-.42.12,0,.3.06.54.18.6.44,1.29,1.02,2.07,1.74.78.72,1.33,1.26,1.65,1.62.16.16.24.36.24.6,0,.4-.18.6-.54.6h-5.64c-.28,0-.53.1-.75.3-.22.2-.33.46-.33.78v5.4c0,.4.2.6.6.6.2,0,.36-.08.48-.24l1.68-2.28c.16-.28.38-.42.66-.42.24,0,.44.08.6.24.72.48,1.48,1.14,2.28,1.98.52.52,1.14.78,1.86.78ZM184.62,94.74c.24-.96.45-1.97.63-3.03.18-1.06.31-2.07.39-3.03.04-.2.06-.39.06-.57s.02-.35.06-.51c0-.24.08-.38.24-.42.08-.08.2-.08.36,0,.52.12,1.2.34,2.04.66.84.32,1.66.65,2.46.99.8.34,1.4.63,1.8.87.24.12.48.23.72.33.24.1.5.17.78.21.32,0,.63.01.93.03.3.02.59.03.87.03.72,0,1.08-.38,1.08-1.14v-3.66c0-.32-.1-.58-.3-.78-.2-.2-.46-.3-.78-.3h-3.36c-.44,0-.82.08-1.14.24-.04.04-.12.06-.24.06h-6.42c-.28,0-.53.1-.75.3-.22.2-.33.46-.33.78v8.82c0,.28.14.42.42.42s.44-.1.48-.3ZM184.38,100.74l5.82-.72c.64-.04,1.2-.4,1.68-1.08.6-.96,1.18-1.93,1.74-2.91.56-.98,1.06-1.97,1.5-2.97.04-.08.06-.18.06-.3,0-.16-.07-.31-.21-.45-.14-.14-.31-.21-.51-.21-.64.04-1.23.07-1.77.09-.54.02-.93.05-1.17.09-.2,0-.34-.08-.42-.24,0-.08-.03-.13-.09-.15-.06-.02-.11.01-.15.09-1,1.36-2.09,2.66-3.27,3.9-1.18,1.24-2.29,2.3-3.33,3.18-.36.28-.54.66-.54,1.14,0,.44.22.62.66.54ZM203.58,75.12h.42c.28,0,.52-.11.72-.33.2-.22.3-.49.3-.81v-3.3c0-.32-.1-.58-.3-.78-.2-.2-.44-.3-.72-.3h-.42c-.28,0-.53.1-.75.3-.22.2-.33.46-.33.78v3.3c0,.76.36,1.14,1.08,1.14ZM203.58,82.62h.42c.28,0,.52-.11.72-.33.2-.22.3-.47.3-.75v-3.54c0-.32-.1-.58-.3-.78-.2-.2-.44-.3-.72-.3h-.42c-.28,0-.53.1-.75.3-.22.2-.33.46-.33.78v3.54c0,.28.11.53.33.75.22.22.47.33.75.33ZM203.58,90.3h.42c.28,0,.52-.12.72-.36.2-.24.3-.5.3-.78v-3.66c0-.32-.1-.58-.3-.78-.2-.2-.44-.3-.72-.3h-.42c-.28,0-.53.1-.75.3-.22.2-.33.46-.33.78v3.66c0,.28.11.54.33.78.22.24.47.36.75.36ZM211.56,82.62h.36c.32,0,.58-.11.78-.33.2-.22.3-.47.3-.75v-3.54c0-.32-.1-.58-.3-.78-.2-.2-.46-.3-.78-.3h-.36c-.28,0-.53.1-.75.3-.22.2-.33.46-.33.78v3.54c0,.28.11.53.33.75.22.22.47.33.75.33ZM211.56,90.3h.36c.32,0,.58-.12.78-.36.2-.24.3-.5.3-.78v-3.66c0-.32-.1-.58-.3-.78-.2-.2-.46-.3-.78-.3h-.36c-.28,0-.53.1-.75.3-.22.2-.33.46-.33.78v3.66c0,.28.11.54.33.78.22.24.47.36.75.36Z"/>
    <path class="cls-4" d="M183.18,172.3c-1,0-1.5-.46-1.5-1.38,0-.24.02-.85.06-1.83.04-.98.08-2.12.12-3.42.04-1.3.06-2.53.06-3.69,0-.2-.1-.34-.3-.42-.2-.08-.36-.02-.48.18-1.4,2.08-3.05,3.92-4.95,5.52-1.9,1.6-3.93,2.92-6.09,3.96-.08.04-.18.06-.3.06-.24,0-.42-.1-.54-.3-.08-.16-.12-.28-.12-.36,0-.2.08-.36.24-.48,3.2-2.24,5.61-5.56,7.23-9.96,1.62-4.4,2.43-10,2.43-16.8,0-2.04-.06-3.62-.18-4.74-.04-.28-.18-.48-.42-.6-.24-.12-.48-.12-.72,0-2.8,1.48-5.52,2.68-8.16,3.6-.04.04-.12.06-.24.06-.28,0-.46-.12-.54-.36-.04-.04-.06-.12-.06-.24,0-.28.12-.48.36-.6,1.92-1,3.88-2.28,5.88-3.84,2-1.56,3.94-3.31,5.82-5.25,1.88-1.94,3.58-3.99,5.1-6.15,1.52-2.16,2.72-4.36,3.6-6.6l.54-1.38c.04-.16.14-.28.3-.36.12-.04.28-.04.48,0,.72.08,1.68.26,2.88.54,1.2.28,2.41.58,3.63.9,1.22.32,2.17.6,2.85.84.16.04.27.14.33.3.06.16.07.34.03.54-.04.04-.07.1-.09.18-.02.08-.05.14-.09.18-.12.16-.18.36-.18.6,0,.28.1.5.3.66,1.84,1.92,4.09,3.58,6.75,4.98,2.66,1.4,5.44,2.54,8.34,3.42,2.9.88,5.63,1.5,8.19,1.86.2.04.33.15.39.33.06.18-.01.33-.21.45-1,.76-1.9,1.68-2.7,2.76-.8,1.08-1.4,2.12-1.8,3.12-.12.28-.31.48-.57.6-.26.12-.53.12-.81,0-2.24-.92-4.57-2.14-6.99-3.66-2.42-1.52-4.71-3.38-6.87-5.58-2.16-2.2-4-4.76-5.52-7.68-.12-.24-.34-.36-.66-.36-.24,0-.42.08-.54.24-1.64,1.96-3.38,3.8-5.22,5.52-1.84,1.72-3.72,3.3-5.64,4.74-.16.04-.24.16-.24.36,0,.28.16.42.48.42.48.04.99.07,1.53.09.54.02,1.05.03,1.53.03h8.04c.56,0,.96-.18,1.2-.54.2-.32.5-.76.9-1.32.4-.56.68-.96.84-1.2.2-.24.4-.36.6-.36s.38.06.54.18c.4.24.88.6,1.44,1.08.56.48,1.1.97,1.62,1.47.52.5.9.93,1.14,1.29.16.16.24.36.24.6,0,.4-.18.6-.54.6h-15.96c-.8,0-1.59.02-2.37.06-.78.04-1.41.08-1.89.12-.52,0-.84-.22-.96-.66-.04-.2-.15-.33-.33-.39-.18-.06-.35-.03-.51.09-.44.28-.89.57-1.35.87-.46.3-.93.59-1.41.87-.16.12-.24.26-.24.42,0,.24.12.4.36.48.8.28,1.64.6,2.52.96.88.36,1.62.68,2.22.96.2.04.39.09.57.15.18.06.35.09.51.09h17.34c.52,0,.86-.18,1.02-.54l1.14-1.92c.24-.32.48-.48.72-.48.12,0,.3.04.54.12.56.16,1.23.42,2.01.78s1.56.72,2.34,1.08c.78.36,1.41.7,1.89,1.02.44.24.66.6.66,1.08,0,.52-.28.9-.84,1.14-.12.04-.23.08-.33.12-.1.04-.19.1-.27.18-.6.44-.9,1.18-.9,2.22s.03,2.2.09,3.36c.06,1.16.11,2.19.15,3.09.04.9.06,1.55.06,1.95,0,.44-.3.82-.9,1.14-.6.32-1.35.57-2.25.75-.9.18-1.79.27-2.67.27-.72,0-1.22-.3-1.5-.9-.2-.6-.62-.9-1.26-.9h-17.88c-.72,0-1.18.34-1.38,1.02l-.18.66c-.04.08-.06.2-.06.36,0,.52.24.88.72,1.08.6.24,1.22.49,1.86.75.64.26,1.2.51,1.68.75.32.16.68.24,1.08.24h15.3c.48,0,.82-.18,1.02-.54l1.14-1.92c.24-.36.48-.54.72-.54.12,0,.3.04.54.12.56.2,1.25.47,2.07.81.82.34,1.64.7,2.46,1.08.82.38,1.47.73,1.95,1.05.44.24.66.62.66,1.14s-.28.9-.84,1.14c-.12.04-.23.09-.33.15s-.19.11-.27.15c-.64.44-.96,1.22-.96,2.34,0,.76.02,1.67.06,2.73.04,1.06.08,2.02.12,2.88.04.86.06,1.39.06,1.59,0,.44-.31.82-.93,1.14-.62.32-1.38.56-2.28.72-.9.16-1.79.24-2.67.24-1.04,0-1.56-.46-1.56-1.38,0-.32-.1-.58-.3-.78-.2-.2-.46-.3-.78-.3h-15.18c-.68,0-1.06.34-1.14,1.02-.04.36-.36.69-.96.99-.6.3-1.32.53-2.16.69-.84.16-1.68.24-2.52.24ZM186.6,150.88h17.64c.32,0,.58-.12.78-.36.2-.24.3-.5.3-.78v-2.04c0-.32-.1-.59-.3-.81-.2-.22-.46-.33-.78-.33h-17.16c-.28,0-.54.1-.78.3-.24.2-.38.46-.42.78l-.18,2.16s-.01.07-.03.09c-.02.02-.03.05-.03.09,0,.24.1.45.3.63.2.18.42.27.66.27ZM187.08,144.76h17.16c.32,0,.58-.11.78-.33.2-.22.3-.47.3-.75v-1.68c0-.32-.1-.58-.3-.78-.2-.2-.46-.3-.78-.3h-17.16c-.28,0-.53.1-.75.3-.22.2-.33.46-.33.78v1.68c0,.28.11.53.33.75.22.22.47.33.75.33ZM189.84,167.5h15.3c.32,0,.58-.11.78-.33.2-.22.3-.47.3-.75v-5.94c0-.76-.36-1.14-1.08-1.14h-15.3c-.28,0-.52.11-.72.33-.2.22-.3.49-.3.81v5.94c0,.28.1.53.3.75.2.22.44.33.72.33Z"/>
  </g>
  <polygon class="cls-4" points="19.72 392.27 19.72 310.73 .06 310.73 .06 410.4 99.68 410.4 99.68 392.27 19.72 392.27"/>
  <polygon class="cls-4" points="253.93 17.86 253.93 99.4 273.6 99.4 273.6 -.27 173.98 -.27 173.98 17.86 253.93 17.86"/>
  <g class="cls-3">
    <g class="cls-7">
      <path class="cls-4" d="M140.31,138.63s-7.58-2.86-.12-12.99l1.1-2.25s1.85-8.29,6.84-6.77.59,8.77.59,8.77l-.95,3.12s.55,12.03-7.46,10.13Z"/>
    </g>
    <g class="cls-7">
      <path class="cls-4" d="M127.59,115.15s-7.58-2.86-.12-12.99l1.1-2.25s1.85-8.29,6.84-6.77c4.99,1.53.59,8.77.59,8.77l-.95,3.12s.55,12.03-7.46,10.13Z"/>
    </g>
    <path class="cls-4" d="M184.36,234.65s-10.71,3.84-11.95-13.78l-.88-3.41s-5.57-10.56,1.15-13.47,8.61,8.84,8.61,8.84l1.82,4.2s11.54,12.36,1.24,17.62Z"/>
    <path class="cls-4" d="M148.72,220.15s-11.37.32-7.08-16.81l.22-3.51s-2.02-11.76,5.28-12.44,5.45,11.08,5.45,11.08l.42,4.56s7.13,15.33-4.29,17.13Z"/>
  </g>
  <g>
    <path class="cls-4" d="M226.48,263.86s-5.37,37.57,29.52,40.25c0,0-34.9,12.01-73.42-21-6.09-5.22-12.27-11.56-18.42-19.25,0,0,22.06,16.1,62.31,0Z"/>
    <path class="cls-4" d="M191.59,317.53c17.04,9.17,45.62-10.73,24.15-37.57-21.47-26.84-59.04,18.78-24.15,37.57Z"/>
    <path class="cls-4" d="M181.67,337.04c-1.51,6.99-1.96,18.48,8.21,26.1,2.03,1.52,2.02,4.57,0,6.1-4.05,3.06-9.71,7.1-11.56,7.32-.11.01-.2,0-.31,0-1.21-.12-8.68-1.06-12.25-6.21-.84-1.22-2.74-.83-2.94.63-.57,4.24.72,10.85,11.68,15.89.77.35,1.64.44,2.45.22,1.35-.35,3.22-1.28,3.76-3.71.22-1,.84-1.86,1.7-2.4,3.23-2,10.75-6.79,15.42-10.81,1.22-1.05,2.96-1.25,4.37-.46,2.45,1.39,6.03,4.09,7.86,8.67.24.6.29,1.25.19,1.89-.25,1.58-.96,4.58-2.85,6.1-1.29,1.03-.5,3.11,1.14,2.89,2.13-.29,5.36-2.04,10.14-7.23,1.4-1.52,1.36-3.86-.1-5.32h0c-.11-.09-.21-.19-.32-.28l-10.86-8.69c-1.13-.9-1.1-2.61.03-3.5,3.85-3.03,11.16-11.01,13.44-28.92.15-1.16,1.47-1.8,2.44-1.16,1.52,1.01,3.53,3.12,5.07,7.55.47,1.36.13,2.89-.9,3.9-1.3,1.28-2.63,3.55-1.01,6.8,2.68,5.37,8.05,5.37,10.73,2.68,2.68-2.68,2.68-8.05,2.68-8.05,0,0,0-4.27-3.8-5.19-1.05-.26-1.95-.91-2.48-1.85-3.07-5.5-13.2-22.75-20.23-23.85,0,0-19.14-6.74-21.81,0-.53,1.73-10.41,14.33-19.8,11.81-2.37-.63-3.55-3.27-2.45-5.46,1.46-2.9,2.26-6.6-4.3-5.05l-.63.21c-1.47.63-6.72,3.49-.23,9.79,4.62,4.49,9.69,5.25,13.48,4.95,2.56-.21,4.57,2.12,4.03,4.63Z"/>
  </g>
  <g class="cls-6">
    <path class="cls-1" d="M88.16,133.4s8.5-14.65-13.73-28.6c0,0-1.7,26.41,13.73,28.6Z"/>
    <path class="cls-1" d="M87.94,136.72s-1.81-16.84-27.99-14.93c0,0,14.26,22.3,27.99,14.93Z"/>
    <path class="cls-1" d="M88.57,136.39s16.53-3.7,11.69-29.5c0,0-20.55,16.68-11.69,29.5Z"/>
    <path class="cls-1" d="M82.77,135.96s13.37,10.4,30.19-9.76c0,0-25.94-5.24-30.19,9.76Z"/>
    <path class="cls-1" d="M81.32,133.25s4.44,16.35,29.99,10.34c0,0-17.59-19.78-29.99-10.34Z"/>
    <path class="cls-1" d="M92.91,136.23s-12.45-11.48-30.9,7.18c0,0,25.41,7.4,30.9-7.18Z"/>
    <path class="cls-1" d="M87.91,136.42s6.18,12.11-12.26,22.33c0,0-.21-21.25,12.26-22.33Z"/>
    <path class="cls-5" d="M80.33,116.89s9.78,34.54,29.52,42.34c0,0-4.34,1.52-4.34,1.52-1.43-1.82-16.16-6.53-23.86-38.09l-1.32-5.77Z"/>
    <path class="cls-5" d="M97.8,116.26s-6.33,14.03-12.68,16.18c0,0,1.06.89,1.06.89.59-.69,5.22-1.83,10.65-14.72l.97-2.36Z"/>
    <path class="cls-5" d="M106.26,128.96s-14.04,6.3-20.23,3.69c0,0,.2,1.37.2,1.37.9-.12,5.11,2.09,17.73-3.94l2.29-1.13Z"/>
    <path class="cls-5" d="M105.56,142.26s-15.22-2.26-19.03-7.79c0,0-.57,1.27-.57,1.27.82.38,3.18,4.52,17.06,6.24l2.54.29Z"/>
    <path class="cls-5" d="M66.61,123.92s11.96,9.69,18.61,8.75c0,0-.55,1.28-.55,1.28-.84-.35-5.48.71-16.13-8.35l-1.93-1.67Z"/>
    <path class="cls-5" d="M66.64,141.76s15.17-2.57,18.87-8.18c0,0,.6,1.25.6,1.25-.81.4-3.09,4.58-16.93,6.58l-2.53.34Z"/>
    <path class="cls-5" d="M77.82,155.8s9.42-13.79,7.82-20.89c0,0,1.43.48,1.43.48-.3.93,1.26,5.86-7.61,18.18l-1.64,2.23Z"/>
  </g>
  <g class="cls-6">
    <path class="cls-1" d="M62.91,64.43s-19.3-20.68,11.7-51.68c0,0,12.61,42.37-11.7,51.68Z"/>
    <path class="cls-1" d="M64.49,69.75s-3.32-28.1,40.01-34.74c0,0-14.91,41.61-40.01,34.74Z"/>
    <path class="cls-1" d="M63.34,69.44s-28.29.14-30.02-43.67c0,0,39.67,19.49,30.02,43.67Z"/>
    <path class="cls-1" d="M72.63,66.59s-17.9,21.91-52.79-4.64c0,0,40.29-18.19,52.79,4.64Z"/>
    <path class="cls-1" d="M73.97,61.63s-1.14,28.27-44.98,28.02c0,0,21.27-38.75,44.98-28.02Z"/>
    <path class="cls-1" d="M56.21,70.8s15.99-23.34,52.99.18c0,0-38.61,21.51-52.99-.18Z"/>
    <path class="cls-1" d="M64.43,69.25s-5.54,22.03,28.27,31.79c0,0-7.58-34.67-28.27-31.79Z"/>
    <path class="cls-5" d="M69.49,34.63s-3.05,59.88-32.29,79.94c0,0,7.64.85,7.64.85,1.65-3.5,23.87-16.66,24.66-70.9v-9.88Z"/>
    <path class="cls-5" d="M40.81,40.12s15.53,20.48,26.68,21.62c0,0-1.4,1.85-1.4,1.85-1.22-.9-9.17-1.03-22.82-19.99l-2.46-3.49Z"/>
    <path class="cls-5" d="M31.77,63.95s25.21,5.02,34.31-1.52c0,0,.18,2.31.18,2.31-1.51.14-7.54,5.32-30.34.19l-4.15-.98Z"/>
    <path class="cls-5" d="M37.87,85.34s23.94-9.35,28.08-19.77c0,0,1.4,1.85,1.4,1.85-1.2.93-3.49,8.54-25.46,16.51l-4.02,1.41Z"/>
    <path class="cls-5" d="M94.45,40.97s-15.87,20.23-27.03,21.18c0,0,1.37,1.87,1.37,1.87,1.23-.88,9.19-.88,23.15-19.61l2.51-3.44Z"/>
    <path class="cls-5" d="M101.05,70.02s-25.66,1.47-33.76-6.28c0,0-.5,2.26-.5,2.26,1.47.34,6.73,6.31,30.02,4.41l4.25-.39Z"/>
    <path class="cls-5" d="M88.08,97.05s-20.47-18.93-20.52-31.09c0,0-2.15,1.31-2.15,1.31.84,1.41.14,10.01,19.16,26.76l3.5,3.02Z"/>
  </g>
  <rect class="cls-2" width="274" height="410"/>
</svg>