<?xml version="1.0" encoding="UTF-8"?>
<svg id="_レイヤー_2" xmlns="http://www.w3.org/2000/svg" version="1.1" viewBox="0 0 1400 299">
  <!-- Generator: Adobe Illustrator 29.0.0, SVG Export Plug-In . SVG Version: 2.1.0 Build 186)  -->
  <defs>
    <style>
      .st0 {
        fill: #1a274b;
      }
    </style>
  </defs>
  <path class="st0" d="M0,163.5c4.8-.5,6.9-6.2,11-7,4.1-.7,9-.2,12.9-.4,2.4-.1,6.3-1.5,8.1-1.3,1.7,0,3.1,2.7,5.6,3.1,2.1.3,4.6-1,7,.4-1.7-19-4-38.3-4.4-57.2.4-2.7,5.5-3.9,7.9-4.9-1.8-3.5,1.9-2.9,2.5-4.8.3-.8-.5-12.2,1.9-9,.4,2.6-.8,7.6.5,9.6.4.5,1.7.6,2,1.1.5.9,0,2.4.4,3.1.6,1,7.8,2.1,7.8,5-.9,19-1.7,38.3-3.5,57.2,2.2-1.8,4.4.1,6.4-.1,1.9-.3,3.6-2.9,5.5-3.1,1.6-.2,19.7,1.3,21.6,1.7,1.3.3,2.3,1.1,3.3,2,4.9,4.2,5.6,5.1,9.5,10.3,1.2,1.5,3.9,3,5,5.7,42.5,10.1,84.4,16.8,128.4,14.2l1.3-1.8h-24.9c-3.2,0-3.5-10.7-3.1-13.1h-17.5c-.3-2.9.4-6.4,0-9.2-.2-1.6-1.6-1.1-1.8-1.9-1.2-5.3,1.6-6.3,2.7-10.7h4.3c.7-8,2-15.8,2.6-23.7h-4.4c-1-4.1,2.9-14,7.4-14h22.3v-5.2s6.1-.9,6.1-.9c-1.6-.4-16.5-8.7-15.7-9.6l23.2-9.3,23.2,9.3-15.7,9.6,5.7,1.7.4,4.4h170c0,0,1-2.7,1-2.7h10.4l1,2.7c9.2.5,17.7-3.7,18.9,8.6l1.2.2h9.2c-.1-12.3,10.4-8.3,18.8-8.7l1-2.7h10.4l1,2.7h85.2v-27.6c0-2.9,1.9-10.6,3.1-13.5,5.4-13.7,18.2-14.3,30.4-17.7,3.1-.9,5.5-3.4,9.4-2.4l-1.3-5.2-2.2,3.1c-4.4.3-2.1-4.6-2.7-7.9-.6-3.5-2.4-7.2-3.1-10.7.8-5.4-1.2-10.5,0-16.1,1.6-7.1,11.7-14.5,18.7-15.4,11.1-1.5,26.1,7.7,26.4,19.5.2,9.5-1.5,13.5-3.2,22-.5,2.7,1,8.9-3.3,8.1l-2.2-2.7v6.1c6.3.7,14.6,2.2,20.8,4.1,17.1,5.4,21.6,21.3,22.2,37.7l7.8,2.7c.5,2.1-.4,1.4-1.1,1.9-1.8,1.3-4.5,2.5-6.6,3.4v10.4c-.1,0,22.2,0,22.2,0,.6,0,1.7-2.9,2.6-3.5,2.3-1.7,8.3-2.6,10.8-5.4l1.1-12.3c-.3-1.2-13.2-3.7-15.5-4.7-1.2-.5-1.4-.1-1.1-2,3.6-.6,23.7-3.3,25-5.2.7-8.5,2.3-16.9,2.1-25.4-6.8-1-13.8-1.4-20.5-2.7-1.4-.3-1.5.6-1.3-1.7,10.9-.6,21.1-4.5,30.9-8.9,1.9-.9,14-6.3,14.4-7,.7-1.2-.2-5.1.1-6.9h3.5s0-13.5,0-13.5c0-.9,2.5-1.7,3.5-1.3v14.9l4.4.4c1.6,1.1,0,4.5,1.7,6.2.8.8,8.1,4.1,9.9,4.9,11.1,5,23.4,9.7,35.6,11.2-.3,1.8-1.8,1.4-3.1,1.7-6,1.5-13.4,1.6-19.7,2.6l2.7,25.3c.8,1,21.2,4.4,24.6,5.4.7.2.7,1.5,1.3,1.6,5.6,1.3,6.1-3.2,9.6-5.1,1.1-.6,14.2-2.6,15.5-2.5,1,0,1.9,1.3,3.4,1.3,3.4-.1,10.3-1.9,13.1-1.4.6.1,10.6,5.2,11.1,5.6,1.9,1.4,6.9,8.5,8.8,9.6,2,1.2,5.2-.4,8.7,1.8,4,2.5,5,8.9,6.1,9.6.3.2,5.6-.6,7,1.3l.9-8.7-9.6-.4c4.8-9.2,8.5-19.8,9.6-30.2h34.1c-.2-1.6-.9-3.1-.9-4.8-.2-6.5-.9-21.3.3-26.9.1-.7,1.5-3.1,2.1-3.3,5.6.2,11.4,0,16.7-1.9l5.5-16.9-.2-1.1-4.2-2,.8-3.4c3.9,2.3,7.4,3.5,11.9,4.3,11,1.8,24.4,2.5,35.8,3.6,15.8,1.5,45.9,5.8,60.3,4.3,3.6-.4,7-4.4,6.6,2.7h-4.4c-1.3,1.2,6.8,17,8.8,18.7,5.8,5,21.3,5.2,28.8,6.6,1.2,7.8-4,3.9-7,5.7l-19.2,25.8,20.4.7c2.9-4.3,4.5-6.6,9.1-9.3,1.3-.7,3.6-.7,4.4-1.3.7-.6.9-2.7,1.9-3.8s3.3-1.6,5-3.3c.9-.9.8-2.4,1.4-3,.5-.5,12-6.1,12.7-6.2,2.4-.4,8.5,1.4,11.3,1.5,5.7.2,12.3-1,18.3.9,4.8,1.5,5,4.9,6.7,5.9,1.3.8,3.3.2,5.5,2,2,1.6,2,3.7,3.4,5.3,6.9,8.1,19.8,2.4,29.7,3.5,25.7,3,25.5,31.5,43.7,41.1,2.6,1.4,6.1,2.1,8.8,3.5,18.2,9.2,22.7,30.4,42.5,40.6,2.4,1.2,11,6.1,11.4,1.7l.9-22.3c-5.1.2-9.3.6-10.5-5.2,2.6-.8,9.1,1.4,10.8,0,2.2-6.4-9.5-2-9.6-8h-4.8c.9-3.4,2.7-4.4,0-7.8,18.1,5.3,37,7.4,55.8,5.4l1.9,5.1c-3.5,0-6-.3-6.6,3.6-10.5-1.7-11.5,5.5-.4,4.3l-.8,4-7.1.4,1.8,31.4,40.1,5.3v122.4H0v-135.5h0ZM261.5,98.8l-19.7-7.5c-1.8,0-15.9,6.1-18.4,7.4-.9.5-1.7-.5-1.2,1.8,8.3,2.8,12.8,10.1,22.3,8.8,2.2-.3,13.5-6.9,15.9-8.6.8-.5,1.6.1,1.1-1.9h0ZM54.1,104l.2-3.9c-1.3-.8-4.9-.8-5.8.4l-.4,3.5h6c0-.1,0-.1,0-.1ZM1045.8,104.9h-35.9v14.9l35.9-.9v-14h0ZM216.9,128.5h-4.4v23.6h4.4v-23.6ZM277.2,149.5h15.3l1.3-1.3v-17.5l-1.3-1.3h-15.3c-1.3,2.7-1.3,19.3,0,20.1h0ZM385.6,129.4v18.8l1.3,1.3h14l1.3-1.3v-17.5l-1.3-1.3h-15.3ZM521.2,129.4v18.8l1.3,1.3h14l1.3-1.3v-17.5l-1.3-1.3h-15.3ZM240.5,130.3h-14v17.9l1.3,1.3h12.7v-19.2h0ZM258,130.3h-14v17.9l1.3,1.3h12.7v-19.2h0ZM320.9,130.3h-14v17.9c3.1,2.1,10.8,2.1,14,0v-17.9ZM338.4,130.3h-14v17.9c3.1,2.1,10.8,2.1,14,0v-17.9ZM355,130.3h-14v17.9l1.3,1.3h12.7v-19.2h0ZM372.5,130.3h-14v17.9l1.3,1.3h12.7v-19.2h0ZM429.4,130.3h-14v17.9c3.1,2.1,10.8,2.1,14,0v-17.9ZM446.8,130.3h-14v17.9c3.1,2.1,10.8,2.1,14,0v-17.9ZM490.6,130.3h-13.6c-2.6,5.2-1.4,13.5-.4,19.2h12.7l1.3-1.3v-17.9h0ZM494.6,130.4c-1.1.3-1.3,1.1-1.4,2.1-.3,1.8-.2,15.4.4,16.2l13.7.4.4-18-13-.7h0ZM550,131.6v15.3c4.5-4.4,8.2-9.2,14.7-10.6v-4.6s-1.3-1.3-1.3-1.3c-2.5.1-12.7-1.2-13.4,1.2h0ZM567.5,135.5c4.1-1.1,11,2.3,13.6-.8,5.4-6.4-8.7-4.2-12.2-4.3-2,.7-1.4,3.4-1.4,5.1h0ZM1339.6,130.4c-2.2-.2-5.2-.9-6.9,1.2,2,2.6,4.6,3.4,7.8,3.1l-1-4.2h0ZM1352.6,131.3h-5.1c-.9,3.7,1.7,4.8,5.3,3.8,1.4-.6.3-3.6-.2-3.8ZM1353.7,139.9l-21-.9v26.2l21,5.2v-30.6ZM418.9,174h-7.9v3.5h7.9v-3.5ZM512.4,174h-8.8v3.5h8.8v-3.5ZM386.5,188.9h63l-4.8-4.4-.9,2.7h-24.4l-1-2.7c-2.4.3-5.4-.4-7.7.2-1.3.4-1.8,2.1-3.7,2.4-5.3,1-13.5-.7-19.2,0-1.3.2-2.7.7-1.3,1.8h0ZM479.2,187.1l-.4-2.6-3.9,4.4h19.7c.5,0,2-1.2,3.1-.9v-.9s-18.4,0-18.4,0h0ZM352.4,187.1h-77.8v1.7h77.8v-1.7Z"/>
</svg>