<?xml version="1.0" encoding="UTF-8"?>
<svg xmlns="http://www.w3.org/2000/svg" version="1.1" xmlns:xlink="http://www.w3.org/1999/xlink" viewBox="0 0 370 217">
  <!-- Generator: Adobe Illustrator 29.0.0, SVG Export Plug-In . SVG Version: 2.1.0 Build 186)  -->
  <defs>
    <style>
      .st0 {
        fill: #41bbbf;
        font-family: Helvetica-Bold, 'Helvetica Bold';
        font-size: 60px;
        font-weight: 700;
      }

      .st1 {
        fill: #ccffd9;
      }

      .st2 {
        fill: #aa998a;
      }

      .st3 {
        fill: #9ec3bc;
      }

      .st4 {
        display: none;
      }

      .st5 {
        fill: #595050;
      }
    </style>
    <path id="path" d="M235.3,140.3s14.9-22,57.7-40.7c76.8-33.5,151-7.1,191.5,9.9,36.4,15.3,63.4,16.3,68.3,17.6-22.1,2.7-57.6-7-64.3-9.4-72.3-26.5-108.8-27.1-147.6-23-60.3,6.3-105.6,45.5-105.6,45.5Z"/>
  </defs>
  <g id="_レイヤー_1" data-name="レイヤー_1">
    <g>
      <path class="st2" d="M40,149s-14.8,18.5-20,34.2c0,0,19.3-26.4,20-34.2Z"/>
      <path class="st2" d="M60.8,142.3s-16.2,18.9-22.1,50.7c0,0,22.8-51,22.1-50.7Z"/>
      <path class="st2" d="M68,137.5s-12.9,21.1-14.9,44.2c0,0,15.4-42.6,14.9-44.2Z"/>
      <g>
        <path class="st2" d="M19.7,175.9s-7.2,3.6-3.6,8.6c0,0,2.7.9,3.6-8.6Z"/>
        <path class="st2" d="M17.4,186.7s-4.8-1.4-4.3,3.2.9,4.5.9,4.5c0,0,5-5.4,3.4-7.7Z"/>
        <path class="st2" d="M24.9,178.1s-1.8,2.9.5,6.1,1.1-10.4-.5-6.1Z"/>
        <path class="st2" d="M16.7,195.4s-4.3,4.8-.9,10.6c0,0,3.4-4.3,3.2-11.1,0,0-.9-2-2.3.5Z"/>
        <path class="st2" d="M22.2,185.6s-2.5,1.8-1.1,9.7c0,0,2.7-3.2,2.9-9.7,0,0-1.6-.5-1.8,0Z"/>
      </g>
      <path class="st2" d="M39.9,182.3s-3.4-.7-5,4.5.5,3.6.5,3.6c0,0,4.8-3.4,4.5-8.2Z"/>
      <path class="st2" d="M36.5,193.2s-4.5.9-2.7,6.6l.9.2s5.2-7.5,1.8-6.8Z"/>
      <path class="st2" d="M37.4,201.4s-4.1,1.8-4.1,7.7c0,0,.7.9,2.5-.9s3.6-7.2,1.6-6.8Z"/>
      <path class="st2" d="M40.8,192.5s-1.6,2.9-.9,7.2c0,0,1.6-.2,2.5-3.2s-.5-5-1.6-4.1Z"/>
      <path class="st2" d="M44.6,182.8s-.7,5.4-.5,7.9c0,0,1.4-1.1,2.3-3.4s.2-7.2-1.8-4.5Z"/>
      <path class="st2" d="M53,168s-3.2.2-2.3,4.3c0,0,.7-.4,2.2-1.5s1.8-2.3,1.8-2.3c0,0,0-.9-1.6-.6Z"/>
      <path class="st2" d="M51.2,175.8s-2.9.5-2.7,2.9-.2,3.4,1.6,3.6c0,0,3.2-7.5,1.1-6.6Z"/>
      <path class="st2" d="M50.5,185.5s-.9,5,1.1,6.3c0,0,3.2-7-1.1-6.3Z"/>
      <path class="st2" d="M55.9,178.9s-2-1.1-1.8,5.4c0,0,2.7-1.6,2.9-4.1s-1.1-1.4-1.1-1.4Z"/>
      <path class="st2" d="M59.5,172.8s1.9-2.1-1.1-4c0,0-.2.7-.4,2.2s.2,2.4.2,2.4c0,0,.6.6,1.3-.7Z"/>
      <g>
        <path class="st3" d="M43.8,148.9s14.9-22,57.7-40.7c76.8-33.5,151-7.1,191.5,9.9s63.4,16.3,68.3,17.6c-22.1,2.7-57.6-7-64.3-9.4-72.3-26.5-108.8-27.1-147.6-23-60.3,6.3-105.6,45.5-105.6,45.5Z"/>
        <path class="st3" d="M119,74.6c-1.2-1.6-3-2.1-5.4-1.6-2.8.6-4.4,1.9-5,4-.3,1.1-.2,2.7.2,4.8l5.1,22.4-9.9,2.2-8.4-37.1,9.5-2.1,1.2,5.4c.8-2.2,1.6-3.8,2.5-4.9,1.6-1.9,3.8-3.2,6.8-3.8,2.8-.6,5.3-.5,7.3.3,1.7.8,3.1,2.1,4.2,3.7.8-2.5,2-4.4,3.7-5.9,1.8-1.5,3.9-2.5,6.3-3,1.6-.4,3.3-.4,5.1-.1,1.7.3,3.4,1.1,5.1,2.4,1.3,1.1,2.4,2.5,3.2,4.3.5,1.2,1,3,1.6,5.4l5.2,23.5-10,2.3-5.3-23.7c-.3-1.4-.8-2.5-1.5-3.3-1.3-1.5-3-2-5.4-1.5-2.7.6-4.3,2.1-4.8,4.6-.3,1.3-.2,2.8.2,4.4l5,22.2-9.8,2.2-5-22.2c-.5-2.2-1.1-3.8-1.8-4.7Z"/>
        <path class="st3" d="M172.2,42.8l.5,9.2-10.1.5-.5-9.2,10.1-.5ZM172.9,56.5l2,38.1-10.1.5-2-38.1,10.1-.5Z"/>
        <path class="st3" d="M203.1,64.4c-3.4-.2-5.8,1.1-7.2,3.8-.8,1.5-1.2,3.4-1.4,5.7l-1.3,20.6-9.9-.6,2.5-38,9.6.6-.4,5.6c1.4-1.9,2.7-3.2,3.9-4,2.1-1.4,4.8-2,7.9-1.8,3.9.3,7.1,1.5,9.5,3.7,2.4,2.2,3.4,5.7,3.1,10.5l-1.7,25.6-10.2-.7,1.5-23.2c.1-2,0-3.6-.5-4.7-.9-2-2.6-3.1-5.4-3.3Z"/>
        <path class="st3" d="M263.1,71.3c2.3,4.6,2.9,9.6,1.8,15-1.2,5.5-3.7,9.8-7.7,13.1-4,3.2-9.2,4.2-15.6,2.8-6.4-1.4-10.8-4.3-13.1-8.9-2.3-4.6-2.9-9.6-1.8-15.1,1.1-5.4,3.7-9.7,7.7-13,4-3.3,9.2-4.3,15.6-2.9s10.8,4.3,13.1,8.9ZM248.2,70.6c-2.9-.6-5.3,0-7.2,1.6-2,1.7-3.3,4.4-4.1,8.2s-.6,6.8.5,9.1c1.1,2.4,3.1,3.8,5.9,4.4,2.9.6,5.3,0,7.2-1.7,2-1.7,3.3-4.4,4.1-8.2.8-3.7.6-6.8-.5-9.1-1.1-2.3-3.1-3.8-5.9-4.4Z"/>
        <path class="st3" d="M293.5,86c-3.8-1.2-6.8-.8-8.9,1.3-1.2,1.2-2.2,3.2-3.1,6.1l-5.5,17.4-9.6-3,11.5-36.4,9.1,2.9-2,6.3c2.2-2,4-3.2,5.4-3.8,2.2-.9,4.8-.9,7.6,0,.2,0,.3.1.4.2.1,0,.4.2.8.3l-3.1,9.7c-.6-.3-1.1-.5-1.6-.6-.5-.2-.8-.3-1.1-.4Z"/>
        <path class="st3" d="M315.4,88.3l-13.4,35.7-9.5-3.5,13.4-35.7,9.5,3.6ZM320.2,75.4l-3.2,8.6-9.5-3.5,3.2-8.6,9.5,3.5Z"/>
      </g>
    </g>
    <path class="st2" d="M82.7,119.2l-4.8,2.7s0,0,0,0l-15.4-26.8s0,0,0,0l4.8-2.7s0,0,0,0l15.4,26.8s0,0,0,0Z"/>
    <g>
      <path class="st2" d="M365.1,122c.8-3.6-1.4-7.1-4.8-8s0,0,0,0l-.5,2.4c2.2.7,3.5,2.9,3,5.2s-2.6,3.7-4.9,3.4l-.5,2.4s0,0,0,0c3.5.6,7-1.7,7.7-5.3Z"/>
      <path class="st2" d="M359.9,112.6c.5-2.6-1.1-5.2-3.7-5.7l-9.4-2-1.5-.3-12.3-2.6c-2.6-.6-5.2,1.1-5.7,3.7l-2.1,9.9c-1.5,7.2,4.2,14.7,13.1,16.8s18-2.2,19.5-9.6l2.1-10.2ZM341.4,118.2c-5.2-1.1-8.9-4.2-8.3-6.8l.2-.8c.5-2.6,3.1-4.3,5.7-3.7l5,1.1.8.2,3.4.7c2.6.6,4.3,3.1,3.7,5.7l-.2.8c-.6,2.7-5.2,4-10.4,2.9Z"/>
    </g>
    <path class="st2" d="M61.2,46.3c-3.5-3.6-9-4.4-13.4-2l-6.9,3.7s-5.1,2.7-9.6,5.3-6.6,7.4-5.6,12.3c2,9.1,5.5,22.9,5.6,23.1,6,13.1,22.3,17.2,35.1,10.8,12.9-6.5,18.5-22,11.6-33.8s-9.8-12.2-16.8-19.3ZM52.8,73.7c-7.5,4-15.6,3.4-18.2-1.4h0c-2.9-5.5-.9-12.3,4.6-15.2l4.2-2.3,1.2-.7,1.8-1c5.5-2.9,12.3-.9,15.2,4.6h0c2.6,4.8-1.4,12-8.8,16Z"/>
  </g>
  <g id="_レイヤー_5" data-name="レイヤー_5" class="st4">
    <path class="st5" d="M235.3,140.3s14.9-22,57.7-40.7c76.8-33.5,151-7.1,191.5,9.9,36.4,15.3,63.4,16.3,68.3,17.6-22.1,2.7-57.6-7-64.3-9.4-72.3-26.5-108.8-27.1-147.6-23-60.3,6.3-105.6,45.5-105.6,45.5Z"/>
    <text>
      <textPath startOffset="20.9%" xlink:href="#path"><tspan class="st0"><tspan x="0" y="0">minori</tspan></tspan>
      </textPath></text>
  </g>
  <g id="_レイヤー_4" data-name="レイヤー_4">
    <path class="st2" d="M90.8,23.2c.6-.3,1.2.1,1.2.8-.1,2.6-1.5,8.4-2.4,10.4s-.2,1.7.4,1.8,1.4-.3,1.7-.9c.8-1.8,2.7-6.4,3.1-12.9s.2-.5.4-.6c1.1-.6,5.2-.6,4.6,3.7s0,5.6-1.9,7.4-1.1,3.7,1.7,1.7,3.5-10.6,2.9-12.6-4-3-7-2.3.8-2.5-1.7-2.5-.8,3.3-1.8,3.7l-5,2.8c0,0-.1.2-.2.5-.2.8.7,1.5,1.4,1l2.7-1.7Z"/>
    <path class="st2" d="M107.6,20.2c0,0,0,.4,0,.9.1.6.8,1,1.4.8,2.7-1,9.4-3.5,10.1-2.7h0s-.4,6.4-1,6.9-2,2.3-3.9,3.1-.6.5-.6.9h0c0,.8.6,1.3,1.4,1.1s2.2-.8,3.8-1.9c2.6-1.7,2.8-9,2.7-11.9s-.6-1.1-1.2-1c-3.1.4-11.5,1.8-12.8,3.8Z"/>
    <path class="st2" d="M132.2,22.7s5.7-2.6,7,.2l-.7.7s-1.5-.4-1.9.1-1.1,1.4-.6,1.8,3-.9,4,1.1-2,.7-8.6,2.2c0,0-3.1-.6-.2-2.5,0,0,2.1.1,2.8,0s.7-2,0-2.5c0,0-1.4.4-2.2.6s-1.6-.4-.9-1.8h1.3Z"/>
    <path class="st2" d="M152.4,15.7c.5-2.6,5.8-5.3,7.2-1.8s-2.4,5.5-3.3,6.1-.1.2,0,.3l7.3,6.4c.7,1.5-1.2,1.7-1.2,1.3s-2.6-2.4-3.4-2.9-.3,0-.3.1c-1.4,3.6-4.3,3.1-5.7,2.7s-1-.6-1.3-1c-2.9-4,.6-6.4,1.5-6.9s.1-.2,0-.3c-.3-.5-1-1.9-.7-4ZM157,14.8c-.8,0-3,.6-2,3.2s.1.1.2.1c.5,0,2-.3,2-3.1s-.1-.2-.2-.2ZM153.3,23.8c-.4,1.2.4,1.7,1.1,1.9s1.3,0,1.9-.3c2.4-1.7,0-3.1-.2-3.2s0,0,0,0c-1.5-.6-2.2-.4-2.9,1.6Z"/>
    <path class="st2" d="M195.1,20.3c0,.5,1.2.9,1.7.9,1.3-.1,3.1-.5,4.1-.8s0,.7,0,.8c-.3,1.6-1.1,6.1-1.7,7.9s.1,1,.6,1.1,1.1.2,1.5-.3,1.5-7.9,1.6-9.9.1-.3.4-.4c.5-.3,2.2-1.3,3.7-4.1s0-1.3-.6-1.5-1.3-.2-1.8.8c-.9,1.7-5.6,5.1-8.9,4.9s-.7.3-.7.7h0Z"/>
    <g>
      <path class="st2" d="M212.9,25.7s.9,1.5,2.9,2.2c2,.6,2.8-1.7,11.4,2.2s1.8-.3,1.7-1.3v-.6c-.4-1.9-16.3-4.8-16.1-2.9"/>
      <path class="st2" d="M216.3,18s-1.9.9.2,2.5.6.3.9.3c1.2,0,4.6-.2,7.6.8s1.4-1.5.6-2.6-.5-.5-.9-.5c-1.9-.3-8-1-8.5-.6Z"/>
    </g>
    <path class="st2" d="M306.4,38.4h0c0,.4,10.5,3.7,18.1,6.7.7.3,27.7,10.2,27.2,9.4,0,0-39.2-18.6-44.6-16.9-.4.1-.6.4-.6.8Z"/>
    <g>
      <path class="st2" d="M287,28.5c0-.6-.9-.8-1.1-.2-1,2.1-4.1,8.6-6.6,10.6s3.4,1.6,5.2-2.3,2.6-6.4,2.6-8.1Z"/>
      <path class="st2" d="M294.3,42.9c.3.2.7.3,1.1.3.6,0,1.4-.2,1.4-1.3,0-1.7-5.1-5.2-4.7-14.3,0-.2-1.3-.9-1.5.7-.4,3.8.4,12.5,3.6,14.5Z"/>
      <path class="st2" d="M296.9,28.3c0,.5.3,1.5.9,2.1s1.4,0,1.1-.7-.3-.9-.3-1.5-.2-.5-.4-.6-.4-.2-.6-.2c-.4,0-.8.3-.7.8Z"/>
      <path class="st2" d="M294.3,29.7c.1.6.4,1.6,1,2.4s1.2.1,1.1-.5-.4-1.8-.6-2.2-.7-.4-1.1-.3-.5.4-.4.7Z"/>
    </g>
    <g>
      <path class="st2" d="M263.6,22.9s-2.4,3-3.6,4.5.6,1.9,2.3.2,1.4-1.6,1.8-2.2,1.2-1,2-.8.8.2,1.2.3c1.3.2,2,1.7,1.3,2.8-1.9,3.3-5.8,8.4-11.2,8.4,0,0-2.3.8.2,1.1s4.4-.6,5.9-1.1,1.4-.6,1.9-1.1c1.8-1.7,6.1-5.8,6.7-9.7s0-.4,0-.7c0-.6-.6-1.1-1.3-1.3l-5.9-1c-.5,0-.9,0-1.2.4v.2Z"/>
      <path class="st2" d="M277.3,23.5c-.1.7-.2,2.2,1,3.4s.7,0,.7-.2c.2-1.1.3-3.1-1.2-3.5s-.5,0-.5.3Z"/>
      <path class="st2" d="M273.8,23c-.2.8-.6,2.9.9,3.3s.5-.1.5-.4c.2-.8.5-2.5,0-3s-.9-.3-1.2-.3-.3.2-.4.3Z"/>
    </g>
    <g>
      <path class="st2" d="M236.2,30.6c-1.1-.4-1.7,1.5-.6,1.9s1,.2,1.7.3c7.6.5,14.5-5.5,15.3-8.4s-.7-1.5-1.3-.9c-2.2,2.2-9.5,9-15.1,7.2Z"/>
      <circle class="st2" cx="240.6" cy="22.9" r="2.2"/>
    </g>
    <g>
      <path class="st2" d="M188.5,15.6s0,0,0,0c.6.6,1.6,0,1.4-.9s-.8-1.6-1.2-2.1-.5-.2-.6.1c-.2.7-.3,2.2.4,2.9Z"/>
      <path class="st2" d="M191,12.3c-.8.8,0,3.3.8,3.3s0-4.1-.8-3.3Z"/>
      <path class="st2" d="M185,12.5c1,0,1.7,1,1.6,2-.3,2-1,5.3-2.9,7.6s-4.7,5.4-6,6.8-1.2.5-1.7.1h0c-.2-.2-.3-.6,0-.8,2.2-2.3,4.1-5.1,4.8-6.2s.1-.6-.1-.8c-.9-.8-2.9-2.9-3.8-2.1,0,0-1.9,2.3-2.5,2.5s-1.2-1.1-.8-1.7c1.4-1.9,3.5-4.7,4.4-6.1s1.1-1,1.8-1.1c1.8-.3,3.8-.2,5.2,0ZM179.3,17.9l1.6,1.2c.5.4,1.3.3,1.7-.3s1.1-1.9.9-3-.7-1.3-1.4-1.5h-.1c-1.1-.2-2.2.3-2.7,1.3s-.2.5-.3.7c-.3.5-.1,1.2.4,1.5Z"/>
    </g>
  </g>
  <g id="_レイヤー_3" data-name="レイヤー_3" class="st4">
    <g>
      <path class="st1" d="M1442.7,427.6l-58.7,110.3c-15.1,24.9,17,46.1,33.7,13.8l57.2-104.8c6.3-11.2-25.8-30.7-32.2-19.3Z"/>
      <circle class="st1" cx="1481.4" cy="396.4" r="26.6"/>
    </g>
    <path class="st1" d="M296.8,344.1l55.2,142.9c1.9,5.2,27-5,27-5,4.2-2.1-.6-24.1-2.3-28.5l-32.6-86.3c-.2-.6-.4-1.2-.5-1.9-1-5.5-5.2-32.5,8.3-41.8,15-10.4,28.9,9.3,34.7,23.1,4.5,10.7,29.7,71.3,37.8,93,1.2,3.1,7.8,8.6,13.6,13s13.2,2.3,16.2-3.8c3.1-6.2,5.6-13.3,4.7-15.8l-37.5-107.8c-.1-.3-.3-.7-.4-1-1.5-3-9.9-21.3,6-30.8s26.6-4.6,33.6,10.4c5.5,11.9,24,66.6,31.5,88.9,1.7,5.1,5.9,31.5,10.8,29.3l17.7-2.8c.8-.1,1.7-.4,2.5-.7,4.9-2,14.3-5.4,12.8-9.5l-50.1-132.6c-.6-1.8-1.7-3.3-3.3-4.5-11.5-8.4-62.4-41-87.7,11.5-2.3,4.7-7.5,7.2-12.6,5.8-13.1-3.6-37.9-6.8-54.7,12.4s-32.2-.1-42.9,13.8,11.1,26.2,12,28.7Z"/>
    <g>
      <path class="st1" d="M593,269l22,123c2.1,14.7,34,3,34,3,4.4-1.2,1.6-8.4,1-13l-19.8-117.7c-.2-8.1-37.3-3-37.2,4.7Z"/>
      <circle class="st1" cx="604.2" cy="220.5" r="26.6"/>
    </g>
    <path class="st1" d="M739,386.8c-.2,5.1,15.9,9.6,22.5,11.3s10.4-1.2,12.4-5.9c.6-1.3.9-2.8,1-4.3l7.1-109.8c0-.9,5.8-28.4,27.3-28.4,23.9,0,31.9,7.3,34.5,29,2.1,17.1-1.7,81.6-3.4,108.4-.4,5.5,20.1,11.1,25.9,12.5s2.4.4,3.6.3.3,0,.4,0c5.3-.6,9.3-4.9,9.6-10.2l4.9-96.7c.2-27.4-1.3-29.5-1.6-31.9-5.2-38-49.2-74-103.2-48-7,3.4-42.3-4-41-3,2.5,1.8,1.3,141.4,0,176.8Z"/>
    <path class="st1" d="M1222.7,328.3c0,.7-.2,1.4-.4,2.1l-42.8,146.7c-1,3.4,5,9.3,9.8,13.5,5.5,4.7,12.9,6.7,20,5.1s6.7-2.5,7.6-5.2c8.8-25.6,28.6-98.2,35-111.4,20-41,70.4-27.1,88.9,28.2,7.1,21.3,37.3,9,33-8.4-3.6-14.5-12.5-39.3-31.9-50.8-32.6-19.3-29-24.3-70.9-23.4-.6,0-1.5-16-5.3-17.9-7.3-3.6-19.4-7.8-32.4-5.3s-10.7,26.8-10.7,26.8Z"/>
    <path class="st1" d="M1113,364c-25.3,88.8-82.9,72.8-96,67-13.1-5.8-55.4-21.4-40-110,15.6-89.7,66.7-86.7,82.2-87.7s3.1-1.7,4.7-1.4c67.1,11.1,74.4,43.3,49.1,132.1ZM1061.2,274.4c-1.1-.3-2.3-.4-3.4-.3-8.1.6-38.4,6.3-44.7,56.8-4.8,38.4,6.8,55.3,15.4,62.4,4.1,3.4,38.5,12.6,50.3-46.4,6.3-31.8,18.3-64-17.5-72.6Z"/>
  </g>
  <g id="_レイヤー_2" data-name="レイヤー_2" class="st4">
    <g id="_商用ロゴ049" data-name="商用ロゴ049">
      <image id="_商用ロゴ0491" data-name="商用ロゴ049" width="1073" height="853" transform="translate(-68 -141) scale(1.5)" xlink:href="14-小池-商用ロゴ-1.png"/>
    </g>
  </g>
</svg>